<mxfile host="app.diagrams.net" modified="2023-06-06T18:06:45.254Z" agent="Mozilla/5.0 (Windows NT 10.0; Win64; x64) AppleWebKit/537.36 (KHTML, like Gecko) Chrome/113.0.0.0 Safari/537.36" etag="3o25qo0mzvvd7aZENmiV" version="21.3.7" type="device">
  <diagram name="Страница 1" id="tqzhUZhpbZfyBi_wRDG5">
    <mxGraphModel dx="880" dy="452" grid="1" gridSize="10" guides="1" tooltips="1" connect="1" arrows="1" fold="1" page="1" pageScale="1" pageWidth="827" pageHeight="1169" math="0" shadow="0">
      <root>
        <mxCell id="0" />
        <mxCell id="1" parent="0" />
        <mxCell id="T1yUd0YS6rWqkwSvxXDS-5" value="" style="edgeStyle=orthogonalEdgeStyle;rounded=0;orthogonalLoop=1;jettySize=auto;html=1;" edge="1" parent="1" source="T1yUd0YS6rWqkwSvxXDS-1" target="T1yUd0YS6rWqkwSvxXDS-2">
          <mxGeometry relative="1" as="geometry" />
        </mxCell>
        <mxCell id="T1yUd0YS6rWqkwSvxXDS-1" value="Start" style="rounded=1;whiteSpace=wrap;html=1;" vertex="1" parent="1">
          <mxGeometry x="340" y="30" width="120" height="60" as="geometry" />
        </mxCell>
        <mxCell id="T1yUd0YS6rWqkwSvxXDS-6" value="" style="edgeStyle=orthogonalEdgeStyle;rounded=0;orthogonalLoop=1;jettySize=auto;html=1;" edge="1" parent="1" source="T1yUd0YS6rWqkwSvxXDS-2" target="T1yUd0YS6rWqkwSvxXDS-3">
          <mxGeometry relative="1" as="geometry">
            <Array as="points">
              <mxPoint x="400" y="230" />
              <mxPoint x="400" y="230" />
            </Array>
          </mxGeometry>
        </mxCell>
        <mxCell id="T1yUd0YS6rWqkwSvxXDS-2" value="arrFirst = [5 элементов]&lt;br&gt;arrSecond= [arrFirst.Lenght]&lt;br&gt;SecondArray(arrFirst&amp;nbsp;,arrSecond)" style="shape=parallelogram;perimeter=parallelogramPerimeter;whiteSpace=wrap;html=1;fixedSize=1;" vertex="1" parent="1">
          <mxGeometry x="270" y="130" width="260" height="70" as="geometry" />
        </mxCell>
        <mxCell id="T1yUd0YS6rWqkwSvxXDS-7" value="" style="edgeStyle=orthogonalEdgeStyle;rounded=0;orthogonalLoop=1;jettySize=auto;html=1;" edge="1" parent="1" source="T1yUd0YS6rWqkwSvxXDS-3" target="T1yUd0YS6rWqkwSvxXDS-4">
          <mxGeometry relative="1" as="geometry" />
        </mxCell>
        <mxCell id="T1yUd0YS6rWqkwSvxXDS-3" value="count = 0&lt;br&gt;i = 0; i &amp;lt; array.lenght; i++" style="shape=hexagon;perimeter=hexagonPerimeter2;whiteSpace=wrap;html=1;fixedSize=1;" vertex="1" parent="1">
          <mxGeometry x="320" y="240" width="150" height="80" as="geometry" />
        </mxCell>
        <mxCell id="T1yUd0YS6rWqkwSvxXDS-9" value="" style="edgeStyle=orthogonalEdgeStyle;rounded=0;orthogonalLoop=1;jettySize=auto;html=1;" edge="1" parent="1" source="T1yUd0YS6rWqkwSvxXDS-4" target="T1yUd0YS6rWqkwSvxXDS-8">
          <mxGeometry relative="1" as="geometry" />
        </mxCell>
        <mxCell id="T1yUd0YS6rWqkwSvxXDS-4" value="IF arrFirst&amp;nbsp;[i] .lenght &amp;lt;=3" style="rhombus;whiteSpace=wrap;html=1;" vertex="1" parent="1">
          <mxGeometry x="292.5" y="355" width="205" height="110" as="geometry" />
        </mxCell>
        <mxCell id="T1yUd0YS6rWqkwSvxXDS-8" value="arr.Second[count] = arrFirst&amp;nbsp;[i]&lt;br&gt;&amp;nbsp; count++" style="rounded=1;whiteSpace=wrap;html=1;" vertex="1" parent="1">
          <mxGeometry x="40" y="380" width="170" height="60" as="geometry" />
        </mxCell>
        <mxCell id="T1yUd0YS6rWqkwSvxXDS-10" value="ДА" style="text;html=1;strokeColor=none;fillColor=none;align=center;verticalAlign=middle;whiteSpace=wrap;rounded=0;" vertex="1" parent="1">
          <mxGeometry x="222.5" y="370" width="70" height="30" as="geometry" />
        </mxCell>
        <mxCell id="T1yUd0YS6rWqkwSvxXDS-13" value="" style="endArrow=classic;html=1;rounded=0;" edge="1" parent="1">
          <mxGeometry width="50" height="50" relative="1" as="geometry">
            <mxPoint x="500" y="410" as="sourcePoint" />
            <mxPoint x="470" y="280" as="targetPoint" />
            <Array as="points">
              <mxPoint x="620" y="340" />
            </Array>
          </mxGeometry>
        </mxCell>
        <mxCell id="T1yUd0YS6rWqkwSvxXDS-14" value="НЕТ" style="text;html=1;strokeColor=none;fillColor=none;align=center;verticalAlign=middle;whiteSpace=wrap;rounded=0;" vertex="1" parent="1">
          <mxGeometry x="497.5" y="350" width="60" height="30" as="geometry" />
        </mxCell>
        <mxCell id="T1yUd0YS6rWqkwSvxXDS-15" value="" style="endArrow=classic;html=1;rounded=0;entryX=0;entryY=0.5;entryDx=0;entryDy=0;" edge="1" parent="1" target="T1yUd0YS6rWqkwSvxXDS-3">
          <mxGeometry width="50" height="50" relative="1" as="geometry">
            <mxPoint x="120" y="380" as="sourcePoint" />
            <mxPoint x="170" y="330" as="targetPoint" />
          </mxGeometry>
        </mxCell>
        <mxCell id="T1yUd0YS6rWqkwSvxXDS-21" value="" style="edgeStyle=orthogonalEdgeStyle;rounded=0;orthogonalLoop=1;jettySize=auto;html=1;exitX=0.542;exitY=0.85;exitDx=0;exitDy=0;exitPerimeter=0;" edge="1" parent="1" source="T1yUd0YS6rWqkwSvxXDS-17" target="T1yUd0YS6rWqkwSvxXDS-20">
          <mxGeometry relative="1" as="geometry" />
        </mxCell>
        <mxCell id="T1yUd0YS6rWqkwSvxXDS-17" value="PrintArray (arrFirst&amp;nbsp;)&lt;br&gt;PrintArray (arrSecond)" style="shape=document;whiteSpace=wrap;html=1;boundedLbl=1;" vertex="1" parent="1">
          <mxGeometry x="310" y="530" width="145" height="80" as="geometry" />
        </mxCell>
        <mxCell id="T1yUd0YS6rWqkwSvxXDS-18" value="" style="endArrow=classic;html=1;rounded=0;entryX=0.975;entryY=0.025;entryDx=0;entryDy=0;entryPerimeter=0;" edge="1" parent="1" target="T1yUd0YS6rWqkwSvxXDS-17">
          <mxGeometry width="50" height="50" relative="1" as="geometry">
            <mxPoint x="470" y="280" as="sourcePoint" />
            <mxPoint x="740" y="280" as="targetPoint" />
            <Array as="points">
              <mxPoint x="720" y="280" />
              <mxPoint x="720" y="530" />
            </Array>
          </mxGeometry>
        </mxCell>
        <mxCell id="T1yUd0YS6rWqkwSvxXDS-20" value="End" style="ellipse;whiteSpace=wrap;html=1;" vertex="1" parent="1">
          <mxGeometry x="340" y="650" width="120" height="80" as="geometry" />
        </mxCell>
      </root>
    </mxGraphModel>
  </diagram>
</mxfile>
